<svg xmlns="http://www.w3.org/2000/svg" viewBox="0 0 600 480" width="600" height="480" role="img">
<defs><linearGradient id="g" x1="0" y1="0" x2="1" y2="1">
<stop offset="0" stop-color="#f0fdfa"/><stop offset="1" stop-color="#99f6e4"/></linearGradient></defs>
<rect width="600" height="480" fill="url(#g)"/>
<circle cx="530" cy="30" r="160" fill="#0d9488" opacity="0.10"/>
<circle cx="60" cy="450" r="110" fill="#0d9488" opacity="0.10"/>
<circle cx="300" cy="240" r="165" fill="#ffffff" opacity="0.92"/>
<g transform="translate(300 240) scale(9.2) translate(-12 -12)" fill="none" stroke="#0d9488"
   stroke-width="1.25" stroke-linecap="round" stroke-linejoin="round"><path d="m16 22-1-4"/><path d="M19 13.99a1 1 0 0 0 1-1V12a2 2 0 0 0-2-2h-3a1 1 0 0 1-1-1V4a2 2 0 0 0-4 0v5a1 1 0 0 1-1 1H6a2 2 0 0 0-2 2v.99a1 1 0 0 0 1 1"/><path d="M5 14h14l1.973 6.767A1 1 0 0 1 20 22H4a1 1 0 0 1-.973-1.233z"/><path d="m8 22 1-4"/></g>
<text x="574" y="458" text-anchor="end" font-family="Segoe UI,Arial,sans-serif" font-size="15"
   font-weight="700" fill="#134e4a" opacity="0.32">BachHome</text>
</svg>