<svg xmlns="http://www.w3.org/2000/svg" viewBox="0 0 600 480" width="600" height="480" role="img">
<defs><linearGradient id="g" x1="0" y1="0" x2="1" y2="1">
<stop offset="0" stop-color="#ecfdf5"/><stop offset="1" stop-color="#a7f3d0"/></linearGradient></defs>
<rect width="600" height="480" fill="url(#g)"/>
<circle cx="530" cy="30" r="160" fill="#059669" opacity="0.10"/>
<circle cx="60" cy="450" r="110" fill="#059669" opacity="0.10"/>
<circle cx="300" cy="240" r="165" fill="#ffffff" opacity="0.92"/>
<g transform="translate(300 240) scale(9.2) translate(-12 -12)" fill="none" stroke="#059669"
   stroke-width="1.25" stroke-linecap="round" stroke-linejoin="round"><path d="M3 2v7c0 1.1.9 2 2 2h4a2 2 0 0 0 2-2V2"/><path d="M7 2v20"/><path d="M21 15V2a5 5 0 0 0-5 5v6c0 1.1.9 2 2 2h3Zm0 0v7"/></g>
<text x="574" y="458" text-anchor="end" font-family="Segoe UI,Arial,sans-serif" font-size="15"
   font-weight="700" fill="#065f46" opacity="0.32">BachHome</text>
</svg>